<svg width="56" height="56" viewBox="0 0 56 56" fill="none" xmlns="http://www.w3.org/2000/svg">
<path d="M28 4C37.389 4 45 11 45 23C45 32.13 35.159 45.313 30.452 51.096C29.098 52.7 26.825 52.636 25.549 51.096C20.843 45.316 11 32.132 11 23C11 11 18.611 4 28 4ZM28 15C26.4087 15 24.8826 15.6321 23.7574 16.7574C22.6321 17.8826 22 19.4087 22 21C22 22.5913 22.6321 24.1174 23.7574 25.2426C24.8826 26.3679 26.4087 27 28 27C29.5913 27 31.1174 26.3679 32.2426 25.2426C33.3679 24.1174 34 22.5913 34 21C34 19.4087 33.3679 17.8826 32.2426 16.7574C31.1174 15.6321 29.5913 15 28 15Z" fill="#D27C2C" fill-opacity="0.75"/>
</svg>
