<svg width="11" height="11" viewBox="0 0 11 11" fill="none" xmlns="http://www.w3.org/2000/svg">
<path d="M1.63999 0.27L5.49999 4.13L9.34 0.29C9.42482 0.199717 9.527 0.127495 9.64041 0.0776622C9.75382 0.0278298 9.87613 0.00141434 10 0C10.2652 0 10.5196 0.105357 10.7071 0.292893C10.8946 0.48043 11 0.734784 11 1C11.0023 1.1226 10.9796 1.24439 10.9332 1.35788C10.8867 1.47138 10.8176 1.57419 10.73 1.66L6.83999 5.5L10.73 9.39C10.8948 9.55124 10.9915 9.76959 11 10C11 10.2652 10.8946 10.5196 10.7071 10.7071C10.5196 10.8946 10.2652 11 10 11C9.87255 11.0053 9.7454 10.984 9.62661 10.9375C9.50783 10.8911 9.40001 10.8204 9.31 10.73L5.49999 6.87L1.64999 10.72C1.5655 10.8073 1.46456 10.8769 1.353 10.925C1.24143 10.9731 1.12146 10.9986 0.999995 11C0.734778 11 0.480424 10.8946 0.292888 10.7071C0.105352 10.5196 -5.14003e-06 10.2652 -5.14003e-06 10C-0.00233663 9.8774 0.0204103 9.75561 0.0668398 9.64212C0.113269 9.52862 0.182402 9.42581 0.269995 9.34L4.15999 5.5L0.269995 1.61C0.10518 1.44876 0.00853448 1.23041 -5.14003e-06 1C-5.14003e-06 0.734784 0.105352 0.48043 0.292888 0.292893C0.480424 0.105357 0.734778 0 0.999995 0C1.23999 0.003 1.46999 0.1 1.63999 0.27Z" fill="#F8F8F8"/>
</svg>
