<svg width="27" height="27" viewBox="0 0 27 27" fill="none" xmlns="http://www.w3.org/2000/svg">
<path d="M13.5 8.85938C12.5822 8.85938 11.685 9.13154 10.9218 9.64146C10.1587 10.1514 9.56386 10.8761 9.21262 11.7241C8.86138 12.5721 8.76948 13.5051 8.94854 14.4053C9.1276 15.3055 9.56958 16.1324 10.2186 16.7814C10.8676 17.4304 11.6945 17.8724 12.5947 18.0515C13.4949 18.2305 14.4279 18.1386 15.2759 17.7874C16.1239 17.4361 16.8486 16.8413 17.3585 16.0782C17.8685 15.315 18.1406 14.4178 18.1406 13.5C18.1392 12.2697 17.6499 11.0901 16.7799 10.2201C15.9099 9.35014 14.7303 8.86077 13.5 8.85938ZM13.5 17.2969C12.749 17.2969 12.015 17.0742 11.3906 16.657C10.7662 16.2398 10.2795 15.6468 9.99214 14.953C9.70477 14.2592 9.62958 13.4958 9.77608 12.7593C9.92258 12.0227 10.2842 11.3462 10.8152 10.8152C11.3462 10.2842 12.0227 9.92258 12.7593 9.77608C13.4958 9.62958 14.2592 9.70477 14.953 9.99214C15.6468 10.2795 16.2398 10.7662 16.657 11.3906C17.0742 12.015 17.2969 12.749 17.2969 13.5C17.2969 14.507 16.8968 15.4727 16.1848 16.1848C15.4727 16.8968 14.507 17.2969 13.5 17.2969ZM18.5625 2.95312H8.4375C6.98347 2.9548 5.58947 3.53315 4.56131 4.56131C3.53315 5.58947 2.9548 6.98347 2.95312 8.4375V18.5625C2.9548 20.0165 3.53315 21.4105 4.56131 22.4387C5.58947 23.4668 6.98347 24.0452 8.4375 24.0469H18.5625C20.0165 24.0452 21.4105 23.4668 22.4387 22.4387C23.4668 21.4105 24.0452 20.0165 24.0469 18.5625V8.4375C24.0452 6.98347 23.4668 5.58947 22.4387 4.56131C21.4105 3.53315 20.0165 2.9548 18.5625 2.95312ZM23.2031 18.5625C23.2017 19.7928 22.7124 20.9724 21.8424 21.8424C20.9724 22.7124 19.7928 23.2017 18.5625 23.2031H8.4375C7.20716 23.2017 6.02761 22.7124 5.15762 21.8424C4.28764 20.9724 3.79827 19.7928 3.79688 18.5625V8.4375C3.79827 7.20716 4.28764 6.02761 5.15762 5.15762C6.02761 4.28764 7.20716 3.79827 8.4375 3.79688H18.5625C19.7928 3.79827 20.9724 4.28764 21.8424 5.15762C22.7124 6.02761 23.2017 7.20716 23.2031 8.4375V18.5625ZM19.8281 8.01562C19.8281 8.1825 19.7786 8.34563 19.6859 8.48439C19.5932 8.62314 19.4614 8.73129 19.3073 8.79515C19.1531 8.85901 18.9834 8.87572 18.8198 8.84316C18.6561 8.81061 18.5058 8.73025 18.3878 8.61225C18.2698 8.49425 18.1894 8.3439 18.1568 8.18023C18.1243 8.01656 18.141 7.84691 18.2049 7.69274C18.2687 7.53856 18.3769 7.40679 18.5156 7.31407C18.6544 7.22136 18.8175 7.17188 18.9844 7.17188C19.2082 7.17188 19.4228 7.26077 19.581 7.419C19.7392 7.57724 19.8281 7.79185 19.8281 8.01562Z" fill="white"/>
</svg>
