<svg width="191" height="191" viewBox="0 0 191 191" fill="none" xmlns="http://www.w3.org/2000/svg">
<g clip-path="url(#clip0_14_162)">
<path d="M146.361 0.165222H45.4235C20.8295 0.165222 0.892212 20.1025 0.892212 44.6965V145.634C0.892212 170.228 20.8295 190.165 45.4235 190.165H146.361C170.955 190.165 190.892 170.228 190.892 145.634V44.6965C190.892 20.1025 170.955 0.165222 146.361 0.165222Z" fill="url(#paint0_radial_14_162)"/>
<path d="M146.361 0.165222H45.4235C20.8295 0.165222 0.892212 20.1025 0.892212 44.6965V145.634C0.892212 170.228 20.8295 190.165 45.4235 190.165H146.361C170.955 190.165 190.892 170.228 190.892 145.634V44.6965C190.892 20.1025 170.955 0.165222 146.361 0.165222Z" fill="url(#paint1_radial_14_162)"/>
<path d="M95.8989 20.9465C75.7426 20.9465 73.2124 21.0348 65.2963 21.3948C57.3949 21.7569 52.0015 23.0075 47.2826 24.843C42.4005 26.7385 38.2599 29.2746 34.1348 33.4011C30.006 37.5269 27.4699 41.6676 25.5685 46.5475C23.7278 51.2678 22.4758 56.6635 22.1203 64.5611C21.7662 72.478 21.6735 75.0089 21.6735 95.166C21.6735 115.323 21.7625 117.845 22.1217 125.761C22.4854 133.662 23.736 139.056 25.5699 143.775C27.467 148.657 30.003 152.798 34.1296 156.923C38.2539 161.051 42.3946 163.593 47.273 165.489C51.9955 167.324 57.3897 168.575 65.2896 168.937C73.2065 169.297 75.7344 169.385 95.89 169.385C116.049 169.385 118.57 169.297 126.487 168.937C134.388 168.575 139.787 167.324 144.51 165.489C149.39 163.593 153.525 161.051 157.648 156.923C161.777 152.798 164.312 148.657 166.214 143.777C168.039 139.056 169.292 133.661 169.663 125.763C170.018 117.846 170.111 115.323 170.111 95.166C170.111 75.0089 170.018 72.4795 169.663 64.5626C169.292 56.6613 168.039 51.2685 166.214 46.5497C164.312 41.6676 161.777 37.5269 157.648 33.4011C153.52 29.2731 149.391 26.737 144.505 24.8437C139.774 23.0075 134.378 21.7562 126.476 21.3948C118.559 21.0348 116.039 20.9465 95.8759 20.9465H95.8989ZM89.2407 34.3214C91.2172 34.3185 93.4222 34.3214 95.8989 34.3214C115.716 34.3214 118.064 34.3927 125.89 34.7482C133.126 35.0792 137.054 36.2882 139.67 37.3043C143.134 38.6491 145.603 40.2574 148.199 42.8558C150.797 45.4535 152.405 47.9272 153.753 51.391C154.769 54.0035 155.98 57.9312 156.309 65.1675C156.665 72.9916 156.742 75.3414 156.742 95.1489C156.742 114.956 156.665 117.307 156.309 125.13C155.978 132.367 154.769 136.294 153.753 138.908C152.408 142.371 150.797 144.838 148.199 147.434C145.602 150.031 143.135 151.639 139.67 152.985C137.057 154.005 133.126 155.211 125.89 155.542C118.066 155.898 115.716 155.975 95.8989 155.975C76.081 155.975 73.732 155.898 65.9086 155.542C58.6722 155.208 54.7446 153.999 52.1262 152.983C48.6631 151.638 46.1887 150.03 43.591 147.432C40.9933 144.835 39.3858 142.367 38.0372 138.902C37.0212 136.288 35.8106 132.361 35.4811 125.124C35.1256 117.3 35.0544 114.95 35.0544 95.1303C35.0544 75.311 35.1256 72.9731 35.4811 65.1489C35.8121 57.9126 37.0212 53.9849 38.0372 51.3687C39.3828 47.9049 40.9933 45.4312 43.5917 42.8336C46.1894 40.2359 48.6631 38.6276 52.1269 37.2798C54.7431 36.2593 58.6722 35.0532 65.9086 34.7207C72.7553 34.4112 75.4086 34.3185 89.2407 34.3029V34.3214ZM135.517 46.6447C130.6 46.6447 126.611 50.6303 126.611 55.548C126.611 60.465 130.6 64.4542 135.517 64.4542C140.434 64.4542 144.423 60.465 144.423 55.548C144.423 50.631 140.434 46.6417 135.517 46.6417V46.6447ZM95.8989 57.0509C74.8505 57.0509 57.7846 74.1168 57.7846 95.166C57.7846 116.215 74.8505 133.273 95.8989 133.273C116.948 133.273 134.008 116.215 134.008 95.166C134.008 74.1175 116.947 57.0509 95.8974 57.0509H95.8989ZM95.8989 70.4259C109.562 70.4259 120.639 81.5016 120.639 95.166C120.639 108.829 109.562 119.906 95.8989 119.906C82.2352 119.906 71.1596 108.829 71.1596 95.166C71.1596 81.5016 82.2352 70.4259 95.8989 70.4259Z" fill="white"/>
</g>
<defs>
<radialGradient id="paint0_radial_14_162" cx="0" cy="0" r="1" gradientUnits="userSpaceOnUse" gradientTransform="translate(51.361 204.799) rotate(-90) scale(188.304 175.138)">
<stop stop-color="#FFDD55"/>
<stop offset="0.1" stop-color="#FFDD55"/>
<stop offset="0.5" stop-color="#FF543E"/>
<stop offset="1" stop-color="#C837AB"/>
</radialGradient>
<radialGradient id="paint1_radial_14_162" cx="0" cy="0" r="1" gradientUnits="userSpaceOnUse" gradientTransform="translate(-30.9335 13.8519) rotate(78.681) scale(84.173 346.964)">
<stop stop-color="#3771C8"/>
<stop offset="0.128" stop-color="#3771C8"/>
<stop offset="1" stop-color="#6600FF" stop-opacity="0"/>
</radialGradient>
<clipPath id="clip0_14_162">
<rect width="190" height="190" fill="white" transform="translate(0.892212 0.165222)"/>
</clipPath>
</defs>
</svg>
