<svg width="27" height="28" viewBox="0 0 27 28" fill="none" xmlns="http://www.w3.org/2000/svg">
<path d="M13.5 9.5486C12.5822 9.5486 11.685 9.82077 10.9218 10.3307C10.1587 10.8406 9.56386 11.5654 9.21262 12.4133C8.86138 13.2613 8.76948 14.1944 8.94854 15.0946C9.1276 15.9948 9.56958 16.8216 10.2186 17.4706C10.8676 18.1196 11.6945 18.5616 12.5947 18.7407C13.4949 18.9197 14.4279 18.8278 15.2759 18.4766C16.1239 18.1254 16.8486 17.5306 17.3585 16.7674C17.8685 16.0043 18.1406 15.1071 18.1406 14.1892C18.1392 12.9589 17.6499 11.7793 16.7799 10.9093C15.9099 10.0394 14.7303 9.54999 13.5 9.5486ZM13.5 17.9861C12.749 17.9861 12.015 17.7634 11.3906 17.3462C10.7662 16.929 10.2795 16.336 9.99214 15.6422C9.70477 14.9484 9.62958 14.185 9.77608 13.4485C9.92258 12.712 10.2842 12.0354 10.8152 11.5044C11.3462 10.9734 12.0227 10.6118 12.7593 10.4653C13.4958 10.3188 14.2592 10.394 14.953 10.6814C15.6468 10.9687 16.2398 11.4554 16.657 12.0798C17.0742 12.7042 17.2969 13.4383 17.2969 14.1892C17.2969 15.1962 16.8968 16.162 16.1848 16.874C15.4727 17.5861 14.507 17.9861 13.5 17.9861ZM18.5625 3.64235H8.4375C6.98347 3.64402 5.58947 4.22238 4.56131 5.25054C3.53315 6.27869 2.9548 7.67269 2.95312 9.12672V19.2517C2.9548 20.7058 3.53315 22.0998 4.56131 23.1279C5.58947 24.1561 6.98347 24.7344 8.4375 24.7361H18.5625C20.0165 24.7344 21.4105 24.1561 22.4387 23.1279C23.4668 22.0998 24.0452 20.7058 24.0469 19.2517V9.12672C24.0452 7.67269 23.4668 6.27869 22.4387 5.25054C21.4105 4.22238 20.0165 3.64402 18.5625 3.64235ZM23.2031 19.2517C23.2017 20.4821 22.7124 21.6616 21.8424 22.5316C20.9724 23.4016 19.7928 23.891 18.5625 23.8923H8.4375C7.20716 23.891 6.02761 23.4016 5.15762 22.5316C4.28764 21.6616 3.79827 20.4821 3.79688 19.2517V9.12672C3.79827 7.89638 4.28764 6.71683 5.15762 5.84685C6.02761 4.97686 7.20716 4.4875 8.4375 4.4861H18.5625C19.7928 4.4875 20.9724 4.97686 21.8424 5.84685C22.7124 6.71683 23.2017 7.89638 23.2031 9.12672V19.2517ZM19.8281 8.70485C19.8281 8.87173 19.7786 9.03486 19.6859 9.17361C19.5932 9.31237 19.4614 9.42051 19.3073 9.48437C19.1531 9.54823 18.9834 9.56494 18.8198 9.53239C18.6561 9.49983 18.5058 9.41947 18.3878 9.30147C18.2698 9.18347 18.1894 9.03313 18.1568 8.86946C18.1243 8.70579 18.141 8.53614 18.2049 8.38196C18.2687 8.22778 18.3769 8.09601 18.5156 8.0033C18.6544 7.91058 18.8175 7.8611 18.9844 7.8611C19.2082 7.8611 19.4228 7.94999 19.581 8.10823C19.7392 8.26646 19.8281 8.48107 19.8281 8.70485Z" fill="#484A4C"/>
</svg>
