<svg width="24" height="24" viewBox="0 0 24 24" fill="none" xmlns="http://www.w3.org/2000/svg">
<path d="M19.435 4.065H4.565C3.90196 4.065 3.26608 4.32839 2.79724 4.79724C2.32839 5.26608 2.065 5.90196 2.065 6.565V17.435C2.065 18.098 2.32839 18.7339 2.79724 19.2028C3.26608 19.6716 3.90196 19.935 4.565 19.935H19.435C20.098 19.935 20.7339 19.6716 21.2028 19.2028C21.6716 18.7339 21.935 18.098 21.935 17.435V6.565C21.935 5.90196 21.6716 5.26608 21.2028 4.79724C20.7339 4.32839 20.098 4.065 19.435 4.065ZM4.565 5.065H19.435C19.8134 5.06415 20.178 5.20733 20.4548 5.46548C20.7315 5.72364 20.8996 6.07741 20.925 6.455C18.455 7.775 15.975 9.085 13.495 10.405C13.16 10.6162 12.805 10.7937 12.435 10.935C12.1449 10.9924 11.8459 10.9874 11.5579 10.9201C11.27 10.8529 10.9996 10.725 10.765 10.545C9.345 9.795 7.925 9.035 6.515 8.285C5.375 7.685 4.215 7.075 3.075 6.465C3.09796 6.08563 3.26502 5.72938 3.542 5.46913C3.81898 5.20888 4.18494 5.06431 4.565 5.065ZM20.935 17.435C20.935 17.8328 20.777 18.2144 20.4957 18.4957C20.2144 18.777 19.8328 18.935 19.435 18.935H4.565C4.16718 18.935 3.78565 18.777 3.50434 18.4957C3.22304 18.2144 3.065 17.8328 3.065 17.435V7.6C5.425 8.84 7.775 10.1 10.135 11.35C10.5565 11.6087 11.0105 11.8105 11.485 11.95C12.1794 12.0631 12.8911 11.9172 13.485 11.54C14.935 10.78 16.375 10.01 17.825 9.25C18.865 8.69 19.895 8.15 20.935 7.6V17.435Z" fill="#555555"/>
</svg>
