<svg width="22" height="22" viewBox="0 0 22 22" fill="none" xmlns="http://www.w3.org/2000/svg">
<path fill-rule="evenodd" clip-rule="evenodd" d="M0.136597 3.47699C0.136597 2.68134 0.452667 1.91828 1.01528 1.35567C1.57789 0.79306 2.34095 0.47699 3.1366 0.47699H4.5086C5.3686 0.47699 6.1186 1.06299 6.3276 1.89699L7.4326 6.31999C7.52214 6.67799 7.50405 7.05445 7.3806 7.40221C7.25715 7.74998 7.03382 8.05358 6.7386 8.27499L5.4456 9.24499C5.3106 9.34599 5.2816 9.49399 5.3196 9.59699C5.88398 11.1318 6.77519 12.5257 7.93154 13.682C9.08789 14.8384 10.4817 15.7296 12.0166 16.294C12.1196 16.332 12.2666 16.303 12.3686 16.168L13.3386 14.875C13.56 14.5798 13.8636 14.3564 14.2114 14.233C14.5591 14.1095 14.9356 14.0914 15.2936 14.181L19.7166 15.286C20.5506 15.495 21.1366 16.245 21.1366 17.106V18.477C21.1366 19.2726 20.8205 20.0357 20.2579 20.5983C19.6953 21.1609 18.9322 21.477 18.1366 21.477H15.8866C7.1886 21.477 0.136597 14.425 0.136597 5.72699V3.47699Z" fill="#484A4C"/>
</svg>
