<svg width="24" height="24" viewBox="0 0 24 24" fill="none" xmlns="http://www.w3.org/2000/svg">
<path fill-rule="evenodd" clip-rule="evenodd" d="M1.5 4.5C1.5 3.70435 1.81607 2.94129 2.37868 2.37868C2.94129 1.81607 3.70435 1.5 4.5 1.5H5.872C6.732 1.5 7.482 2.086 7.691 2.92L8.796 7.343C8.88488 7.70101 8.86647 8.07726 8.74307 8.42489C8.61966 8.77252 8.39672 9.07616 8.102 9.298L6.809 10.268C6.674 10.369 6.645 10.517 6.683 10.62C7.24767 12.1547 8.13899 13.5484 9.29531 14.7047C10.4516 15.861 11.8453 16.7523 13.38 17.317C13.483 17.355 13.63 17.326 13.732 17.191L14.702 15.898C14.9238 15.6033 15.2275 15.3803 15.5751 15.2569C15.9227 15.1335 16.299 15.1151 16.657 15.204L21.08 16.309C21.914 16.518 22.5 17.268 22.5 18.129V19.5C22.5 20.2956 22.1839 21.0587 21.6213 21.6213C21.0587 22.1839 20.2956 22.5 19.5 22.5H17.25C8.552 22.5 1.5 15.448 1.5 6.75V4.5Z" fill="white"/>
</svg>
