<svg width="34" height="49" viewBox="0 0 34 49" fill="none" xmlns="http://www.w3.org/2000/svg">
<path d="M17 0C26.389 0 34 7 34 19C34 28.13 24.159 41.313 19.452 47.096C18.098 48.7 15.825 48.636 14.549 47.096C9.843 41.316 0 28.132 0 19C0 7 7.611 0 17 0ZM17 11C15.4087 11 13.8826 11.6321 12.7574 12.7574C11.6321 13.8826 11 15.4087 11 17C11 18.5913 11.6321 20.1174 12.7574 21.2426C13.8826 22.3679 15.4087 23 17 23C18.5913 23 20.1174 22.3679 21.2426 21.2426C22.3679 20.1174 23 18.5913 23 17C23 15.4087 22.3679 13.8826 21.2426 12.7574C20.1174 11.6321 18.5913 11 17 11Z" fill="#EC6B15"/>
</svg>
