<svg width="61" height="61" viewBox="0 0 61 61" fill="none" xmlns="http://www.w3.org/2000/svg">
<path d="M51.4688 11.4375H40.0312V8.57812C40.0312 7.3142 39.5292 6.10205 38.6354 5.20832C37.7417 4.31459 36.5295 3.8125 35.2656 3.8125H25.7344C24.4705 3.8125 23.2583 4.31459 22.3646 5.20832C21.4708 6.10205 20.9688 7.3142 20.9688 8.57812V11.4375H9.53125C9.02568 11.4375 8.54082 11.6383 8.18333 11.9958C7.82584 12.3533 7.625 12.8382 7.625 13.3438C7.625 13.8493 7.82584 14.3342 8.18333 14.6917C8.54082 15.0492 9.02568 15.25 9.53125 15.25H11.5566L13.8203 51.5784C13.9895 54.7773 16.4414 57.1875 19.5391 57.1875H41.4609C44.5741 57.1875 46.9771 54.8309 47.1797 51.5879L49.4434 15.25H51.4688C51.9743 15.25 52.4592 15.0492 52.8167 14.6917C53.1742 14.3342 53.375 13.8493 53.375 13.3438C53.375 12.8382 53.1742 12.3533 52.8167 11.9958C52.4592 11.6383 51.9743 11.4375 51.4688 11.4375ZM22.9429 49.5625H22.875C22.381 49.5628 21.9061 49.3713 21.5505 49.0284C21.1949 48.6855 20.9863 48.2179 20.9688 47.7242L20.0156 21.0367C19.9976 20.5311 20.1812 20.0391 20.5259 19.6688C20.8707 19.2986 21.3484 19.0805 21.854 19.0625C22.3595 19.0445 22.8516 19.2281 23.2218 19.5728C23.592 19.9176 23.8101 20.3953 23.8281 20.9008L24.7812 47.5883C24.7903 47.8387 24.75 48.0884 24.6625 48.3232C24.575 48.5579 24.442 48.7731 24.2713 48.9565C24.1006 49.1398 23.8954 49.2877 23.6674 49.3917C23.4395 49.4957 23.1933 49.5537 22.9429 49.5625ZM32.4062 47.6562C32.4062 48.1618 32.2054 48.6467 31.8479 49.0042C31.4904 49.3617 31.0056 49.5625 30.5 49.5625C29.9944 49.5625 29.5096 49.3617 29.1521 49.0042C28.7946 48.6467 28.5938 48.1618 28.5938 47.6562V20.9688C28.5938 20.4632 28.7946 19.9783 29.1521 19.6208C29.5096 19.2633 29.9944 19.0625 30.5 19.0625C31.0056 19.0625 31.4904 19.2633 31.8479 19.6208C32.2054 19.9783 32.4062 20.4632 32.4062 20.9688V47.6562ZM36.2188 11.4375H24.7812V8.57812C24.7798 8.45256 24.8035 8.32797 24.8509 8.21169C24.8983 8.0954 24.9684 7.98976 25.0572 7.90096C25.146 7.81217 25.2516 7.74202 25.3679 7.69463C25.4842 7.64724 25.6088 7.62356 25.7344 7.625H35.2656C35.3912 7.62356 35.5158 7.64724 35.6321 7.69463C35.7484 7.74202 35.854 7.81217 35.9428 7.90096C36.0316 7.98976 36.1017 8.0954 36.1491 8.21169C36.1965 8.32797 36.2202 8.45256 36.2188 8.57812V11.4375ZM40.0312 47.7242C40.0137 48.2179 39.8051 48.6855 39.4495 49.0284C39.0939 49.3713 38.619 49.5628 38.125 49.5625H38.0559C37.8056 49.5536 37.5595 49.4954 37.3317 49.3914C37.1039 49.2873 36.8989 49.1394 36.7283 48.9561C36.5577 48.7728 36.4248 48.5576 36.3374 48.3229C36.25 48.0882 36.2097 47.8386 36.2188 47.5883L37.1719 20.9008C37.1808 20.6505 37.2389 20.4044 37.343 20.1765C37.447 19.9487 37.5949 19.7435 37.7782 19.5728C37.9615 19.4021 38.1767 19.2692 38.4114 19.1816C38.6461 19.0941 38.8957 19.0536 39.146 19.0625C39.3964 19.0714 39.6425 19.1296 39.8704 19.2336C40.0982 19.3376 40.3034 19.4855 40.4741 19.6688C40.6448 19.8522 40.7777 20.0673 40.8653 20.302C40.9528 20.5367 40.9933 20.7863 40.9844 21.0367L40.0312 47.7242Z" fill="#999999"/>
</svg>
