<svg width="188" height="188" viewBox="0 0 188 188" fill="none" xmlns="http://www.w3.org/2000/svg">
<path d="M123.003 0.165222H65.4355C12.8317 0.165222 0.332886 12.6734 0.332886 65.1646V122.742C0.332886 175.327 12.7472 187.835 65.3322 187.835H122.909C175.494 187.835 188.002 175.42 188.002 122.835V65.2678C188.002 12.664 175.588 0.165222 123.003 0.165222ZM151.839 134.067H138.148C132.968 134.067 131.411 129.873 122.121 120.583C114.014 112.767 110.589 111.791 108.534 111.791C105.7 111.791 104.921 112.57 104.921 116.483V128.794C104.921 132.125 103.842 134.077 95.1435 134.077C86.7017 133.51 78.5153 130.945 71.2588 126.594C64.0023 122.243 57.8833 116.23 53.4058 109.051C42.7759 95.8204 35.3796 80.292 31.8051 63.7008C31.8051 61.6458 32.5839 59.7878 36.4968 59.7878H50.1873C53.7061 59.7878 54.9729 61.3549 56.3429 64.9675C62.9864 84.5227 74.3216 101.526 78.9195 101.526C80.6836 101.526 81.4531 100.747 81.4531 96.3459V76.2089C80.8713 67.0225 75.9919 66.2437 75.9919 62.9219C76.0546 62.0458 76.456 61.2285 77.1112 60.6434C77.7664 60.0583 78.6237 59.7514 79.5013 59.7878H101.008C103.945 59.7878 104.921 61.2517 104.921 64.7705V91.945C104.921 94.8821 106.188 95.8579 107.07 95.8579C108.834 95.8579 110.195 94.8821 113.423 91.6541C120.356 83.1991 126.02 73.7793 130.238 63.6914C130.669 62.4796 131.485 61.4422 132.56 60.7374C133.636 60.0326 134.913 59.6991 136.196 59.7878H149.887C153.987 59.7878 154.86 61.8428 153.987 64.7705C149.009 75.9221 142.85 86.5077 135.614 96.3459C134.141 98.5979 133.55 99.7708 135.614 102.408C136.975 104.463 141.77 108.469 144.998 112.279C149.689 116.958 153.584 122.372 156.53 128.306C157.703 132.116 155.742 134.067 151.839 134.067Z" fill="#85B6FF"/>
</svg>
