<svg width="22" height="22" viewBox="0 0 22 22" fill="none" xmlns="http://www.w3.org/2000/svg">
<path fill-rule="evenodd" clip-rule="evenodd" d="M0.5 3.5C0.5 2.70435 0.816071 1.94129 1.37868 1.37868C1.94129 0.816071 2.70435 0.5 3.5 0.5H4.872C5.732 0.5 6.482 1.086 6.691 1.92L7.796 6.343C7.88488 6.70101 7.86647 7.07726 7.74307 7.42489C7.61966 7.77252 7.39672 8.07616 7.102 8.298L5.809 9.268C5.674 9.369 5.645 9.517 5.683 9.62C6.24767 11.1547 7.13899 12.5484 8.29531 13.7047C9.45162 14.861 10.8453 15.7523 12.38 16.317C12.483 16.355 12.63 16.326 12.732 16.191L13.702 14.898C13.9238 14.6033 14.2275 14.3803 14.5751 14.2569C14.9227 14.1335 15.299 14.1151 15.657 14.204L20.08 15.309C20.914 15.518 21.5 16.268 21.5 17.129V18.5C21.5 19.2956 21.1839 20.0587 20.6213 20.6213C20.0587 21.1839 19.2956 21.5 18.5 21.5H16.25C7.552 21.5 0.5 14.448 0.5 5.75V3.5Z" fill="#C4C4C4"/>
</svg>
