<svg width="241" height="187" viewBox="0 0 241 187" fill="none" xmlns="http://www.w3.org/2000/svg">
<path fill-rule="evenodd" clip-rule="evenodd" d="M0 93.5V187H65.5H131V165.5V144H91H51V72V0H25.5H0V93.5ZM81 66.5V133H106H131V124.5V116H161.5H192V151.5V187H216.5H241V93.5V0H216.5H192V36.5V73H161.5H131V36.5V0H106H81V66.5Z" fill="#F96501" fill-opacity="0.8"/>
<path fill-rule="evenodd" clip-rule="evenodd" d="M0 93.5V187H65.5H131V165.5V144H91H51V72V0H25.5H0V93.5ZM81 66.5V133H106H131V124.5V116H161.5H192V151.5V187H216.5H241V93.5V0H216.5H192V36.5V73H161.5H131V36.5V0H106H81V66.5Z" fill="black" fill-opacity="0.2"/>
</svg>
