<svg width="1820" height="545" viewBox="0 0 1820 545" fill="none" xmlns="http://www.w3.org/2000/svg">
<g clip-path="url(#clip0_17_3)">
<path d="M0.499976 1.19999C0.199976 1.89999 0.0999756 124.4 0.199976 273.5L0.499976 544.5L190.2 544.8L380 545V480V415H264.5H149V207.5V-8.12113e-06H75C16.7 -8.12113e-06 0.799976 0.299992 0.499976 1.19999Z" fill="#EC6B15" fill-opacity="0.5"/>
<path d="M232 194V388H306H380V364V340H465.5H551V442.5V545H625H699V272.5V-8.12113e-06H625H551V105V210H465.5H380V105V-8.12113e-06H306H232V194Z" fill="#EC6B15" fill-opacity="0.5"/>
<path d="M1028.1 44.2C1039.2 60.9 1048.4 74.7 1048.6 74.9C1048.8 75.1 1049 61.5 1049 44.7V14H1028.5H1008L1028.1 44.2Z" fill="#EC6B15" fill-opacity="0.5"/>
<path d="M1119.9 51.3C1101.2 72.6 1090 98.6 1088.4 124.5L1087.8 133.5L1130.4 197L1173.1 260.5L1179.6 262.2C1209.6 270.1 1247.5 264 1269.5 247.8L1273.5 244.9L1274 253.2L1274.5 261.5L1299.8 261.8L1325 262L1324.8 210.9L1324.5 159.8L1291.7 140.9L1259 122H1247.5H1236L1236.2 147.7L1236.5 173.5L1253.8 173.8L1271 174V183.4V192.8L1264.4 197C1249.6 206.3 1234.4 210.5 1217.5 209.7C1190.3 208.5 1170.1 195.4 1158.5 171.5C1152.6 159.3 1150.7 150.4 1150.8 135C1150.8 120.7 1152.8 111.5 1158.2 100.4C1161.6 93.4 1169.8 83.7 1176.1 79L1179.8 76.4L1153.4 61.2C1138.9 52.8 1126.5 46 1125.8 46.1C1125.1 46.1 1122.4 48.4 1119.9 51.3Z" fill="#EC6B15" fill-opacity="0.5"/>
<path d="M1368 223.4V262L1398.3 261.8L1428.5 261.5V240.6V219.8L1404 205.6C1390.5 197.8 1376.9 189.9 1373.8 188.1L1368 184.9V223.4Z" fill="#EC6B15" fill-opacity="0.5"/>
<path d="M1561.2 309C1520.6 314.1 1495 339.7 1495 375C1495 393 1499.3 403.5 1512 416C1522.4 426.4 1530.1 431 1555.7 442.3C1576.6 451.5 1583.8 455.6 1587.5 460.4C1593.8 468.7 1591.1 478.3 1581 482.7C1575.4 485.2 1561.2 484.9 1552 482.1C1540.4 478.5 1525.8 470.7 1518.9 464.3L1516.2 461.9L1502.2 482.2L1488.2 502.5L1490.3 504.9C1501.6 517.2 1526.3 528.9 1548.5 532.6C1561.5 534.7 1581.2 534 1592.4 531.1C1613.2 525.6 1629.7 512.7 1638 495.5C1647.1 476.5 1646.6 452 1636.9 436.5C1627.5 421.5 1614.6 412.7 1581.5 399C1564 391.8 1558.9 389.1 1553.8 384.2C1549.4 380 1547.6 375.3 1548.6 370.8C1550.4 362.5 1556.3 358.9 1569.1 358.2C1583.5 357.5 1599.8 362.7 1613.5 372.4L1619.6 376.9L1628.9 358.9C1637.2 342.8 1638 340.8 1636.6 339.7C1635.7 339 1623.3 331.9 1609.2 323.8L1583.5 309L1576 308.6C1571.9 308.3 1565.2 308.5 1561.2 309Z" fill="#EC6B15" fill-opacity="0.5"/>
<path d="M1277 363.7V415.5L1316.2 474C1337.7 506.2 1355.9 532.8 1356.4 533.2C1358.3 534.5 1378.1 534.1 1387.5 532.5C1423.1 526.7 1448 505.3 1457.2 472.4C1459.4 464.6 1459.4 463.5 1459.8 388.2L1460.1 312H1433.1H1406L1405.8 386.2L1405.5 460.5L1402.9 466C1396.6 479.4 1382.7 486.1 1364.1 484.7C1347.6 483.4 1336.6 475.5 1332.6 462.1C1331.2 457.3 1331 447.8 1331 384.3V312H1304H1277V363.7Z" fill="#EC6B15" fill-opacity="0.5"/>
<path d="M1678 447V530H1748.5H1819V507V484H1775.5H1732V464V444H1765H1798V438.2V432.5L1768 415.2C1751.5 405.7 1736.6 397.7 1735 397.3C1733.3 397 1732 396.2 1732 395.6C1732 394.7 1680.1 364 1678.5 364C1678.2 364 1678 401.3 1678 447Z" fill="#EC6B15" fill-opacity="0.5"/>
<path d="M1194.5 11.5C1182.1 13.5 1167.4 18.3 1155.3 24.2C1144.7 29.5 1125.2 43.6 1126.7 45C1127.1 45.4 1139.4 52.6 1153.9 61L1180.3 76.2L1183.9 74.5C1213.3 60.3 1251.1 64.6 1278.4 85.1L1283.4 88.8L1286.1 84.7C1287.6 82.4 1294.2 72.1 1300.8 61.7L1312.9 43L1307.7 38.8C1291.7 26.1 1272.8 17.7 1249.4 12.9C1236.1 10.2 1207.2 9.50002 1194.5 11.5Z" fill="white"/>
<path d="M797 138V262H878H959V235.5V209H909H859V111.5V14H828H797V138Z" fill="white"/>
<path d="M988 138V262H1018.5H1049V169.2V76.3L1028.3 45.2L1007.5 14.1L997.8 14H988V138Z" fill="white"/>
<path d="M1368 99.2L1368.1 184.5L1397.7 201.5C1414 210.8 1427.7 218.6 1428.1 218.8C1428.6 219 1429 207 1429 192.1V165H1473.5H1518V213.5V262H1548.5H1579V138V14H1548.5H1518V63.5V113H1473.5H1429V63.5V14H1398.5H1368V99.2Z" fill="white"/>
<path d="M1608.5 15.3C1608.2 16 1608.1 27.8 1608.2 41.5L1608.5 66.5L1645.8 66.8L1683 67V164.5V262H1714H1745V164.5V67H1782.5H1820V40.5V14H1714.5C1630.2 14 1608.8 14.3 1608.5 15.3Z" fill="white"/>
<path d="M1259.1 121.4C1259.8 122.1 1324 159 1324.5 159C1324.8 159 1324.9 150.6 1324.8 140.2L1324.5 121.5L1291.6 121.2C1273.5 121.1 1258.8 121.2 1259.1 121.4Z" fill="white"/>
<path d="M1087.4 145C1089.6 181.1 1100.9 208 1123.4 230.6C1137 244.1 1149.3 252.2 1166.2 258.5L1173 261L1157.7 238.2C1149.2 225.7 1130.3 197.5 1115.6 175.5C1100.8 153.5 1088.3 135 1087.8 134.5C1087.1 133.8 1087 137.3 1087.4 145Z" fill="white"/>
<path d="M1114.5 309.1C1089.3 312.4 1065.9 323.7 1049 340.9C1027.1 363 1016.4 391.4 1017.5 424C1018.6 455 1029.4 481 1049.4 501.3C1070.6 522.9 1097.1 533.6 1130.5 533.9C1164.3 534.3 1191.7 523.6 1213.5 501.6C1236.7 478.2 1247.1 450.2 1245.7 414.6C1244.6 385.1 1234 360.1 1214.3 340.5C1206.9 333.2 1195.2 324.7 1186.5 320.3C1178.9 316.4 1161.4 311.1 1151.6 309.7C1140.3 308 1124.7 307.8 1114.5 309.1ZM1145.7 359.5C1172.8 365.9 1189.9 389.5 1190 420.5C1190 443.4 1180 463.8 1163.4 475C1153.1 481.8 1144.4 484.4 1131.5 484.4C1115.6 484.3 1104.3 479.9 1092.6 469C1085.4 462.2 1078.3 449.6 1075.4 438.5C1072.9 428.8 1072.9 410.8 1075.5 402C1081.7 380.2 1097.4 364.3 1117.5 359.4C1124.5 357.7 1138.3 357.7 1145.7 359.5Z" fill="white"/>
<path d="M1586.5 310.2C1587.6 310.8 1599.7 317.8 1613.4 325.7C1627 333.6 1638.4 340 1638.6 340C1639.5 340 1642.1 333.7 1641.6 332.5C1640.8 330.4 1625 320.3 1617.3 317.1C1609.1 313.6 1592.2 309 1587.6 309C1584.8 309.1 1584.7 309.2 1586.5 310.2Z" fill="white"/>
<path d="M797 421.5V531L824.3 530.8L851.5 530.5L851.8 487.7L852 445H891H930V488V531H957H984V421.5V312H957H930V355.5V399H891H852L851.8 355.7L851.5 312.5L824.3 312.2L797 312V421.5Z" fill="white"/>
<path d="M1678.2 337.6L1678.5 363.2L1705 378.4L1731.5 393.7L1731.8 375.9L1732 358L1773.8 357.8L1815.5 357.5V335V312.5L1746.7 312.2L1678 312L1678.2 337.6Z" fill="white"/>
<path d="M1738.1 397.4C1739 398.2 1797.9 432 1798.4 432C1798.7 432 1799 424.1 1799 414.5V397H1768.3C1751.5 397 1737.9 397.2 1738.1 397.4Z" fill="white"/>
<path d="M1277 437.6C1277 449.1 1277.5 461.4 1278.1 465C1282.1 490 1297.2 511.1 1319.4 522.9C1329.5 528.2 1337.9 530.9 1352.7 533.4C1355.7 533.9 1354.2 531.4 1319.2 479.2C1299.1 449.1 1281.3 422.7 1279.8 420.6L1277 416.7V437.6Z" fill="white"/>
</g>
<defs>
<clipPath id="clip0_17_3">
<rect width="1820" height="545" fill="white"/>
</clipPath>
</defs>
</svg>
